# xmcd CD database file
#
# Track frame offsets:
#	150
#	16998
#	38427
#	56892
#	74999
#	92256
#	111485
#	126996
#	143170
#	160567
#	176658
#	196079
#	225986
#	251452
#	266278
#	283896
#	299181
#
# Disc length: 4322 seconds
#
# Revision: 0
# Processed by: cddbd v1.5.2PL0 Copyright (c) Steve Scherf et al.
# Submitted via: CDex 1.70beta2
#
DISCID=f910e011
DTITLE=George Benson - Classic Love Songs
DYEAR=2010
DGENRE=Jazz
TTITLE0=Give Me The Night
TTITLE1=Love X Love
TTITLE2=Never Give Up On A Good Thing
TTITLE3=Lady Love Me (One More Time)
TTITLE4=Turn Your Love Around
TTITLE5=Love Ballad
TTITLE6=We Got The Love
TTITLE7=Shiver
TTITLE8=Please Don't Walk Away
TTITLE9=Midnight Love Affair
TTITLE10=Nature Boy
TTITLE11=Livin' Inside Your Love
TTITLE12=Breezin'
TTITLE13=This Masquerade
TTITLE14=Being With You
TTITLE15=In Your Eyes
TTITLE16=The Greatest Love Of All
EXTD=YEAR: 2010
EXTT0=
EXTT1=
EXTT2=
EXTT3=
EXTT4=
EXTT5=
EXTT6=
EXTT7=
EXTT8=
EXTT9=
EXTT10=
EXTT11=
EXTT12=
EXTT13=
EXTT14=
EXTT15=
EXTT16=
PLAYORDER=
